<svg id="Capa_1" data-name="Capa 1" xmlns="http://www.w3.org/2000/svg" viewBox="0 0 533.33 533.33">
  <title>filter</title>
  <path d="M266.67,0C119.39,0,0,37.31,0,83.33v50l200,200V500c0,18.41,29.85,33.33,66.67,33.33s66.66-14.92,66.66-33.33V333.33l200-200v-50C533.33,37.31,413.94,0,266.67,0ZM49.16,72.3c12.47-7.11,30-13.86,50.66-19.52,45.81-12.54,105.06-19.45,166.85-19.45s121,6.91,166.84,19.45c20.67,5.66,38.19,12.41,50.67,19.52,8.22,4.69,12.67,8.66,14.73,11-2.06,2.37-6.51,6.34-14.73,11-12.48,7.12-30,13.87-50.67,19.53-45.8,12.54-105.06,19.44-166.84,19.44s-121-6.9-166.85-19.44c-20.67-5.66-38.19-12.41-50.66-19.53-8.23-4.69-12.67-8.66-14.74-11C36.49,81,40.93,77,49.16,72.3Z" style="fill: #fff"/>
</svg>
